<svg xmlns="http://www.w3.org/2000/svg" version="1.1" xmlns:xlink="http://www.w3.org/1999/xlink" xmlns:svgjs="http://svgjs.dev/svgjs" width="1000" height="255" viewBox="0 0 1000 255"><g transform="matrix(1,0,0,1,-0.6060606060606233,-0.015267937821136002)"><svg viewBox="0 0 396 101" data-background-color="#ffffff" preserveAspectRatio="xMidYMid meet" height="255" width="1000" xmlns="http://www.w3.org/2000/svg" xmlns:xlink="http://www.w3.org/1999/xlink"><g id="tight-bounds" transform="matrix(1,0,0,1,0.2400000000000091,0.006047300862491056)"><svg viewBox="0 0 395.52 100.98790539827503" height="100.98790539827503" width="395.52"><g><svg viewBox="0 0 397.4975999999999 101.4928449252664" height="100.98790539827503" width="395.52"><g><rect width="397.4975999999999" height="2.5177141723769547" x="0" y="64.46581106208112" fill="#6b2828" opacity="1" stroke-width="0" stroke="transparent" fill-opacity="1" class="rect-o-0" data-fill-palette-color="secondary" rx="1%" id="o-0" data-palette-color="#6b2828"></rect></g><g transform="matrix(1,0,0,1,0.9887999999999693,73.57440003125639)"><svg viewBox="0 0 395.52 27.918444894010026" height="27.918444894010026" width="395.52"><g><svg viewBox="0 0 395.52 27.918444894010026" height="27.918444894010026" width="395.52"><g><svg viewBox="0 0 395.52 27.918444894010026" height="27.918444894010026" width="395.52"><g transform="matrix(1,0,0,1,0,0)"><svg width="395.52" viewBox="5.420000076293945 -38.650001525878906 555.0900268554688 39.19000244140625" height="27.918444894010026" data-palette-color="#6b2828"><path d="M5.42 0L5.42-38.16 19.41-38.16Q25.54-38.16 30.05-36.84 34.57-35.52 37.54-33.07 40.5-30.62 41.96-27.11 43.41-23.61 43.41-19.24L43.41-19.24Q43.41-15.09 41.97-11.56 40.53-8.03 37.57-5.46 34.62-2.88 30.1-1.43 25.59 0.02 19.46 0.02L19.46 0.02 5.42 0ZM13.16-6.69L21.31-6.69Q24.78-6.69 27.39-7.58 30-8.47 31.75-10.11 33.5-11.74 34.38-14.06 35.25-16.38 35.25-19.24L35.25-19.24Q35.25-22.05 34.38-24.3 33.5-26.56 31.75-28.14 30-29.71 27.39-30.57 24.78-31.42 21.31-31.42L21.31-31.42 13.16-31.42 13.16-6.69ZM50.19 0L50.19-38.16 57.98-38.16 57.98 0 50.19 0ZM65.5-5.08L69.62-11.35Q71.7-10.18 73.84-9.24 75.97-8.3 78.27-7.65 80.56-7.01 83.09-6.67 85.62-6.32 88.47-6.32L88.47-6.32Q91.91-6.32 94.33-6.77 96.75-7.23 98.27-8.02 99.8-8.81 100.5-9.91 101.19-11.01 101.19-12.3L101.19-12.3Q101.19-14.38 99.46-15.59 97.72-16.8 94.11-16.8L94.11-16.8Q92.52-16.8 90.77-16.59 89.01-16.38 87.21-16.14 85.42-15.89 83.67-15.69 81.93-15.48 80.39-15.48L80.39-15.48Q77.83-15.48 75.47-16.14 73.12-16.8 71.3-18.12 69.48-19.43 68.4-21.41 67.33-23.39 67.33-26.03L67.33-26.03Q67.33-27.59 67.76-29.13 68.18-30.66 69.12-32.07 70.06-33.47 71.55-34.68 73.04-35.89 75.15-36.77 77.27-37.65 80.04-38.15 82.81-38.65 86.35-38.65L86.35-38.65Q88.91-38.65 91.5-38.37 94.09-38.09 96.54-37.57 98.99-37.06 101.26-36.34 103.54-35.62 105.49-34.74L105.49-34.74 102.09-28.49Q100.48-29.2 98.63-29.8 96.77-30.4 94.75-30.83 92.72-31.27 90.56-31.53 88.4-31.79 86.15-31.79L86.15-31.79Q82.95-31.79 80.89-31.32 78.83-30.86 77.61-30.14 76.39-29.42 75.91-28.53 75.43-27.64 75.43-26.76L75.43-26.76Q75.43-25.05 76.97-23.96 78.51-22.88 81.66-22.88L81.66-22.88Q82.93-22.88 84.58-23.06 86.23-23.24 88.04-23.46 89.86-23.68 91.76-23.86 93.65-24.05 95.43-24.05L95.43-24.05Q98.8-24.05 101.4-23.29 104-22.53 105.76-21.13 107.51-19.73 108.42-17.74 109.32-15.75 109.32-13.28L109.32-13.28Q109.32-9.99 107.8-7.41 106.27-4.83 103.45-3.06 100.63-1.29 96.65-0.38 92.67 0.54 87.79 0.54L87.79 0.54Q84.57 0.54 81.49 0.13 78.41-0.27 75.59-1.01 72.77-1.76 70.22-2.8 67.67-3.83 65.5-5.08L65.5-5.08ZM115.52-19.31L115.52-19.31Q115.52-23.39 117.06-26.92 118.6-30.44 121.51-33.04 124.43-35.64 128.64-37.13 132.85-38.62 138.18-38.62L138.18-38.62Q142.84-38.62 146.73-37.68 150.63-36.74 153.97-34.81L153.97-34.81 150.41-28.96Q149.41-29.61 148.1-30.13 146.79-30.64 145.32-30.99 143.84-31.35 142.27-31.54 140.69-31.74 139.15-31.74L139.15-31.74Q135.44-31.74 132.54-30.82 129.63-29.91 127.64-28.26 125.65-26.61 124.61-24.33 123.58-22.05 123.58-19.31L123.58-19.31Q123.58-16.48 124.65-14.11 125.72-11.74 127.76-10.02 129.8-8.3 132.74-7.34 135.69-6.37 139.4-6.37L139.4-6.37Q141.08-6.37 142.74-6.62 144.4-6.86 145.95-7.29 147.5-7.71 148.94-8.31 150.38-8.91 151.63-9.62L151.63-9.62 155.19-3.76Q152.07-1.76 147.97-0.62 143.86 0.51 139.25 0.51L139.25 0.51Q133.37 0.51 128.92-1.01 124.48-2.54 121.5-5.21 118.52-7.89 117.02-11.51 115.52-15.14 115.52-19.31ZM163.71 0L163.71-38.16 183.12-38.16Q187.51-38.16 190.74-37.24 193.96-36.33 196.08-34.59 198.21-32.86 199.25-30.37 200.28-27.88 200.28-24.73L200.28-24.73Q200.28-22.61 199.77-20.69 199.26-18.77 198.2-17.16 197.13-15.55 195.52-14.29 193.91-13.04 191.74-12.21L191.74-12.21 200.04 0 190.57 0 183.39-10.84 183.17-10.84 171.45-10.86 171.45 0 163.71 0ZM171.45-17.55L183.32-17.55Q185.51-17.55 187.16-18.07 188.81-18.58 189.92-19.51 191.03-20.43 191.58-21.77 192.13-23.1 192.13-24.73L192.13-24.73Q192.13-27.93 189.93-29.68 187.73-31.42 183.32-31.42L183.32-31.42 171.45-31.42 171.45-17.55ZM209.44 0L209.44-38.16 241.93-38.16 241.93-31.37 217.18-31.37 217.18-23.75 239.1-23.75 239.1-17.38 217.18-17.38 217.18-6.76 242.44-6.76 242.44 0 209.44 0ZM262.53 0L262.53-31.37 248.45-31.37 248.45-38.16 284.36-38.16 284.36-31.37 270.27-31.37 270.27 0 262.53 0ZM292.61 0L292.61-38.16 325.1-38.16 325.1-31.37 300.35-31.37 300.35-23.75 322.27-23.75 322.27-17.38 300.35-17.38 300.35-6.76 325.62-6.76 325.62 0 292.61 0ZM348.49-19.31L348.49-19.31Q348.49-23.39 350.03-26.92 351.56-30.44 354.48-33.04 357.4-35.64 361.61-37.13 365.82-38.62 371.14-38.62L371.14-38.62Q375.81-38.62 379.7-37.68 383.6-36.74 386.94-34.81L386.94-34.81 383.38-28.96Q382.37-29.61 381.07-30.13 379.76-30.64 378.29-30.99 376.81-31.35 375.23-31.54 373.66-31.74 372.12-31.74L372.12-31.74Q368.41-31.74 365.5-30.82 362.6-29.91 360.61-28.26 358.62-26.61 357.58-24.33 356.54-22.05 356.54-19.31L356.54-19.31Q356.54-16.48 357.62-14.11 358.69-11.74 360.73-10.02 362.77-8.3 365.71-7.34 368.65-6.37 372.37-6.37L372.37-6.37Q374.05-6.37 375.71-6.62 377.37-6.86 378.92-7.29 380.47-7.71 381.91-8.31 383.35-8.91 384.6-9.62L384.6-9.62 388.16-3.76Q385.04-1.76 380.93-0.62 376.83 0.51 372.22 0.51L372.22 0.51Q366.33 0.51 361.89-1.01 357.45-2.54 354.47-5.21 351.49-7.89 349.99-11.51 348.49-15.14 348.49-19.31ZM396.68 0L396.68-38.16 404.42-38.16 404.42-6.79 426.61-6.79 426.61 0 396.68 0ZM434.1 0L434.1-38.16 466.6-38.16 466.6-31.37 441.84-31.37 441.84-23.75 463.77-23.75 463.77-17.38 441.84-17.38 441.84-6.76 467.11-6.76 467.11 0 434.1 0ZM470.8 0L488.72-38.16 496.92-38.16 515.38 0 507.25 0 504.19-6.42 481.9-6.42 478.95 0 470.8 0ZM484.86-12.79L501.14-12.79 492.89-30.13 484.86-12.79ZM521.26 0L521.26-38.16 529-38.16 552.78-25.71 552.78-38.16 560.51-38.16 560.51 0 552.78 0 552.78-17.5 529-29.88 529 0 521.26 0Z" opacity="1" transform="matrix(1,0,0,1,0,0)" fill="#6b2828" class="undefined-text-0" data-fill-palette-color="primary" id="text-0"></path></svg></g></svg></g></svg></g></svg></g><g transform="matrix(1,0,0,1,162.83742846420964,0)"><svg viewBox="0 0 71.82274307158063 57.8749362652828" height="57.8749362652828" width="71.82274307158063"><g><svg xmlns="http://www.w3.org/2000/svg" xmlns:xlink="http://www.w3.org/1999/xlink" version="1.1" x="8" y="0" viewBox="7.2129998207092285 6 84.78700256347656 87.90399932861328" enable-background="new 0 0 100 100" xml:space="preserve" height="57.8749362652828" width="55.82274307158063" class="icon-icon-0" data-fill-palette-color="accent" id="icon-0"><polygon points="92,62.108 92,93.904 7.213,93.904 7.213,62.108 49.606,74.577 " fill="#283132" data-fill-palette-color="accent"></polygon><path d="M88.883 42.159c0 1.035-0.835 1.871-1.87 1.871H12.2c-1.035 0-1.871-0.835-1.871-1.871 0-1.035 0.836-1.871 1.871-1.871h8.903L30.903 6l18.703 12.469 18.702-7.481 10.985 29.301h7.719C88.048 40.289 88.883 41.125 88.883 42.159z" fill="#283132" data-fill-palette-color="accent"></path><path d="M76.414 53.382c0 3.777-3.079 6.857-6.857 6.857-3.13 0-5.785-2.12-6.596-4.987H55.84c-1.034 0-1.869-0.836-1.869-1.87 0-1.036 0.835-1.87 1.869-1.87h18.704C75.579 51.512 76.414 52.346 76.414 53.382z" fill="#283132" data-fill-palette-color="accent"></path><g fill="#283132" data-fill-palette-color="accent"><path d="M45.242 53.382c0 3.777-3.08 6.857-6.857 6.857-3.129 0-5.786-2.12-6.596-4.987h-7.12c-1.035 0-1.871-0.836-1.871-1.87 0-1.036 0.836-1.87 1.871-1.87h18.703C44.407 51.512 45.242 52.346 45.242 53.382z" fill="#283132" data-fill-palette-color="accent"></path></g></svg></g></svg></g><g><rect width="86.30430846420967" height="2.5177141723769547" y="54.35722209290584" x="234.66017153579025" fill="#6b2828" data-fill-palette-color="secondary"></rect><rect width="86.30430846420967" height="2.5177141723769547" y="54.35722209290584" x="76.53311999999997" fill="#6b2828" data-fill-palette-color="secondary"></rect></g></svg></g><defs></defs></svg><rect width="395.52" height="100.98790539827503" fill="none" stroke="none" visibility="hidden"></rect></g></svg></g></svg>